<?xml version="1.0" standalone="no"?>
<!DOCTYPE svg PUBLIC "-//W3C//DTD SVG 20010904//EN"
 "http://www.w3.org/TR/2001/REC-SVG-20010904/DTD/svg10.dtd">
<svg version="1.0" xmlns="http://www.w3.org/2000/svg"
 width="3530.000000pt" height="3472.000000pt" viewBox="0 0 3530.000000 3472.000000"
 preserveAspectRatio="xMidYMid meet">

<g transform="translate(0.000000,3472.000000) scale(0.100000,-0.100000)"
fill="#000000" stroke="none">
<path d="M34975 34702 c-17 -9 -85 -58 -150 -108 -600 -454 -1362 -913 -2295
-1379 -472 -236 -781 -382 -1552 -731 -387 -175 -488 -223 -628 -301 -25 -13
-67 -36 -95 -51 -27 -14 -66 -36 -85 -47 -19 -12 -82 -47 -140 -77 -107 -57
-178 -95 -285 -153 -33 -18 -136 -72 -230 -120 -93 -48 -210 -109 -260 -135
-49 -26 -171 -89 -270 -140 -281 -145 -650 -336 -740 -385 -33 -18 -114 -61
-180 -95 -66 -35 -136 -73 -155 -85 -19 -12 -71 -41 -115 -65 -44 -24 -131
-74 -193 -112 -63 -37 -116 -68 -118 -68 -10 0 -419 -258 -554 -350 -8 -5
-172 -115 -365 -243 -327 -218 -844 -572 -855 -586 -3 -4 -30 -23 -60 -43 -30
-21 -91 -63 -135 -95 -96 -70 -132 -95 -155 -108 -9 -6 -37 -25 -61 -43 -90
-68 -215 -154 -232 -161 -13 -5 39 -48 220 -181 1512 -1111 2726 -2355 3770
-3861 439 -634 813 -1271 1184 -2014 104 -209 189 -377 189 -373 0 3 -7 21
-15 41 -14 34 -14 35 19 68 18 19 62 68 97 109 35 41 66 77 69 80 3 3 33 39
66 80 32 41 67 84 77 95 11 11 39 46 64 78 24 31 48 57 54 57 5 0 9 7 9 15 0
8 4 15 8 15 4 0 24 21 43 48 20 26 53 66 74 90 l38 42 74 0 c42 0 73 4 73 10
0 6 5 10 11 10 6 0 25 11 42 24 18 13 50 31 72 40 22 10 54 23 70 31 46 19
152 72 225 110 36 19 71 35 78 35 7 0 20 4 30 9 35 18 93 41 102 41 13 0 121
50 140 65 19 15 57 28 140 50 36 9 88 23 116 31 64 18 200 18 284 -1 91 -20
452 -21 508 -1 28 10 64 13 114 9 72 -5 100 -1 208 32 30 9 80 21 110 26 30 5
75 19 99 31 47 23 140 26 203 7 73 -22 278 -51 278 -39 0 8 -81 234 -91 252
-5 10 -9 25 -9 33 0 13 -104 191 -119 205 -10 9 -31 44 -37 63 -4 9 -10 17
-14 17 -4 0 -10 8 -14 18 -7 21 -25 49 -48 76 -10 11 -18 23 -18 28 0 4 -26
26 -57 49 -32 24 -60 45 -63 48 -3 4 -30 26 -60 50 -30 25 -59 49 -65 55 -5 6
-46 28 -90 49 -44 21 -87 42 -95 48 -8 5 -23 12 -32 15 -10 4 -18 9 -18 13 0
9 -57 37 -165 81 -16 7 -42 19 -57 26 -14 8 -32 14 -39 14 -19 0 -79 49 -79
66 0 7 -3 14 -8 14 -4 0 -16 17 -27 38 -11 20 -22 39 -25 42 -12 10 -70 111
-70 120 0 6 -4 10 -10 10 -5 0 -10 6 -10 14 0 8 -7 22 -17 31 -9 9 -16 30 -16
45 0 15 7 36 16 45 10 9 17 19 17 23 0 4 12 21 26 37 14 17 32 42 40 58 8 15
19 27 24 27 6 0 10 7 10 15 0 8 4 15 10 15 5 0 16 13 25 29 8 16 20 35 28 43
7 7 42 53 77 102 35 48 75 95 89 104 14 9 28 19 31 22 3 3 21 12 40 21 19 9
47 22 62 29 19 9 47 11 95 6 101 -11 525 -10 625 0 48 5 93 15 100 22 6 6 25
12 40 12 16 0 51 11 78 25 27 14 55 25 62 25 6 0 34 19 61 41 46 39 51 41 95
35 26 -4 74 -9 108 -12 l61 -6 7 148 c12 233 7 588 -8 613 -3 5 -8 28 -11 52
-5 47 -33 184 -43 209 -3 8 -9 -16 -14 -55 -4 -38 -14 -108 -21 -155 l-12 -85
-6 170 c-8 197 -23 365 -38 415 -24 79 -4 658 25 729 8 18 14 47 14 63 0 16 6
41 14 56 9 17 19 100 27 225 11 171 15 197 29 191 24 -10 214 -23 226 -16 36
22 74 63 74 81 0 19 6 37 36 108 8 17 14 38 14 46 0 9 5 19 10 22 6 3 10 17
10 31 0 13 4 24 9 24 5 0 13 10 16 23 4 12 13 36 21 52 7 17 20 55 28 85 l14
55 6 -35 c4 -19 13 -84 21 -145 8 -60 28 -202 45 -315 70 -461 88 -635 91
-860 2 -101 -2 -147 -13 -180 -39 -112 -49 -210 -68 -675 -6 -143 -15 -309
-20 -370 -21 -224 -41 -412 -56 -501 -19 -120 -18 -140 8 -174 20 -27 22 -45
26 -195 3 -123 8 -168 18 -176 19 -15 18 -202 0 -324 -8 -49 -12 -93 -10 -96
4 -7 -9 -111 -60 -508 -69 -527 -106 -727 -222 -1186 -195 -777 -305 -1107
-572 -1720 -243 -559 -722 -1529 -978 -1982 -333 -590 -793 -1270 -1247 -1846
-60 -76 -107 -140 -105 -143 15 -15 481 601 765 1011 240 346 522 801 713
1150 273 498 726 1435 952 1970 495 1169 806 2483 963 4070 81 825 61 1542
-65 2355 -99 638 -105 721 -105 1450 1 829 29 1263 180 2810 65 658 75 767 89
935 39 462 48 645 36 734 -29 204 -98 339 -201 392 -46 23 -74 24 -114 1z
m-1602 -3612 c38 -30 52 -80 33 -123 -17 -42 -46 -59 -99 -61 -84 -2 -117 99
-56 169 37 41 81 47 122 15z m-237 -387 c3 -29 4 -57 1 -60 -12 -11 -33 5 -51
38 -16 32 -17 36 -1 74 16 36 18 38 30 21 8 -10 17 -43 21 -73z m182 -160
c-10 -2 -28 -2 -40 0 -13 2 -5 4 17 4 22 1 32 -1 23 -4z m-371 -154 c34 -12
87 -62 115 -107 27 -44 27 -106 0 -157 -41 -77 -73 -99 -152 -108 -81 -9 -134
17 -162 80 -30 67 -34 122 -13 164 26 50 62 91 104 116 40 25 66 28 108 12z
m-414 -606 c30 -60 59 -238 41 -256 -20 -19 -89 50 -113 114 -10 29 13 122 38
153 18 21 18 21 34 -11z m310 -440 c-7 -2 -21 -2 -30 0 -10 3 -4 5 12 5 17 0
24 -2 18 -5z m-2993 -2137 c0 -2 -8 -10 -17 -17 -16 -13 -17 -12 -4 4 13 16
21 21 21 13z m-130 -160 c0 -2 -8 -10 -17 -17 -16 -13 -17 -12 -4 4 13 16 21
21 21 13z m-50 -60 c0 -2 -8 -10 -17 -17 -16 -13 -17 -12 -4 4 13 16 21 21 21
13z m-40 -50 c0 -2 -8 -10 -17 -17 -16 -13 -17 -12 -4 4 13 16 21 21 21 13z
m-40 -49 c0 -2 -10 -12 -22 -23 l-23 -19 19 23 c18 21 26 27 26 19z m-52 -64
c-8 -10 -108 -133 -223 -273 -114 -140 -221 -268 -238 -285 -17 -17 -11 -5 14
25 25 30 137 166 248 303 112 136 205 247 208 247 4 0 -1 -8 -9 -17z m-488
-596 c0 -2 -12 -14 -27 -28 l-28 -24 24 28 c23 25 31 32 31 24z m-110 -132
c-33 -41 -66 -77 -72 -81 -6 -4 19 30 56 74 37 45 70 82 73 82 2 0 -23 -34
-57 -75z m-120 -145 c-23 -27 -44 -50 -47 -50 -3 0 14 23 37 50 23 28 44 50
47 50 3 0 -14 -22 -37 -50z m-50 -63 c0 -2 -12 -14 -27 -28 l-28 -24 24 28
c23 25 31 32 31 24z m-117 -141 c-37 -45 -70 -82 -72 -80 -4 4 128 164 135
164 3 0 -26 -38 -63 -84z"/>
<path d="M30436 22567 c3 -10 9 -15 12 -12 3 3 0 11 -7 18 -10 9 -11 8 -5 -6z"/>
<path d="M30451 22535 c0 -5 6 -21 14 -35 8 -14 14 -20 14 -15 0 6 -6 21 -14
35 -8 14 -14 21 -14 15z"/>
<path d="M30536 22337 c3 -10 9 -15 12 -12 3 3 0 11 -7 18 -10 9 -11 8 -5 -6z"/>
<path d="M31006 21145 c3 -11 37 -114 74 -230 88 -269 175 -559 240 -800 47
-173 70 -242 58 -174 -4 24 -1 27 31 33 20 3 56 6 81 6 25 0 70 7 100 15 30 8
71 15 90 15 19 0 57 6 85 13 55 15 50 4 78 162 27 150 36 224 43 362 l6 131
-63 46 c-35 25 -69 49 -74 54 -6 5 -24 17 -40 28 -17 10 -32 22 -35 26 -3 4
-31 14 -61 22 -31 8 -78 25 -105 38 -27 14 -76 30 -109 37 -33 7 -76 18 -95
26 -19 7 -78 21 -131 30 -53 9 -100 20 -105 24 -5 3 -18 26 -28 51 -23 58 -49
111 -40 85z"/>
<path d="M31391 19844 c0 -11 3 -14 6 -6 3 7 2 16 -1 19 -3 4 -6 -2 -5 -13z"/>
<path d="M27400 4901 c-69 -70 -207 -205 -307 -301 -238 -228 -242 -232 -348
-324 -49 -43 -97 -86 -106 -95 -9 -9 -43 -38 -75 -66 -32 -27 -71 -62 -86 -77
-16 -14 -28 -25 -28 -23 0 2 -19 -15 -42 -37 -24 -22 -62 -54 -85 -71 -24 -17
-43 -34 -43 -39 0 -4 -4 -8 -10 -8 -5 0 -20 -10 -33 -22 -53 -50 -97 -85 -102
-80 -2 3 -7 -3 -11 -12 -3 -9 -12 -16 -20 -16 -8 0 -14 -4 -14 -9 0 -5 -26
-28 -57 -52 -32 -24 -62 -49 -68 -55 -5 -5 -28 -23 -50 -39 -22 -16 -44 -34
-50 -41 -5 -6 -31 -26 -57 -44 -27 -18 -48 -37 -48 -42 0 -4 -7 -8 -15 -8 -8
0 -15 -3 -15 -7 0 -5 -23 -23 -50 -42 -28 -19 -50 -38 -50 -43 0 -4 -7 -8 -15
-8 -8 0 -15 -4 -15 -8 0 -9 -62 -47 -72 -44 -5 1 -8 -5 -8 -15 0 -9 -3 -14 -6
-11 -3 3 -19 -7 -37 -23 -17 -16 -37 -29 -44 -29 -7 0 -13 -4 -13 -10 0 -5 -4
-10 -10 -10 -9 0 -35 -19 -64 -46 -6 -6 -32 -23 -56 -39 -25 -15 -47 -31 -50
-34 -3 -3 -39 -28 -80 -56 -41 -27 -77 -52 -80 -55 -3 -4 -16 -13 -30 -20 -14
-7 -48 -31 -76 -52 -28 -21 -56 -38 -62 -38 -5 0 -12 -3 -14 -7 -1 -5 -30 -26
-63 -48 -33 -22 -62 -43 -65 -46 -3 -3 -20 -14 -39 -24 -19 -9 -39 -21 -45
-26 -17 -14 -72 -49 -181 -116 -55 -33 -129 -79 -165 -102 -36 -22 -83 -50
-105 -61 -22 -11 -53 -30 -70 -40 -16 -11 -38 -23 -47 -26 -10 -4 -18 -10 -18
-15 0 -5 -6 -9 -14 -9 -8 0 -21 -6 -28 -13 -7 -6 -29 -20 -48 -30 -19 -9 -48
-25 -65 -35 -40 -24 -247 -138 -310 -171 -27 -14 -52 -28 -55 -31 -16 -16
-682 -347 -905 -450 -38 -18 -97 -45 -130 -60 -33 -16 -141 -63 -240 -104 -99
-41 -200 -85 -224 -97 -25 -12 -50 -22 -55 -24 -6 -1 -22 -7 -36 -12 -14 -6
-56 -23 -95 -38 -38 -15 -83 -33 -100 -40 -16 -8 -68 -28 -115 -46 -47 -17
-121 -45 -165 -61 -44 -17 -105 -39 -135 -49 -30 -10 -80 -27 -110 -39 -72
-27 -190 -68 -265 -91 -33 -10 -87 -28 -120 -39 -57 -20 -180 -60 -252 -81
-60 -17 -97 -28 -168 -49 -38 -11 -112 -32 -163 -45 -52 -14 -106 -33 -120
-44 -32 -22 -200 -70 -292 -83 -116 -16 -321 -58 -485 -99 -22 -6 -51 -12 -65
-14 -14 -2 -91 -18 -173 -35 -81 -17 -184 -37 -230 -46 -140 -25 -251 -45
-282 -50 -16 -2 -55 -9 -85 -14 -207 -35 -492 -77 -625 -91 -44 -5 -138 -15
-210 -24 -71 -9 -184 -20 -250 -25 -66 -6 -133 -12 -150 -14 -61 -10 -408 -31
-745 -47 -370 -16 -1153 -13 -1465 6 -44 3 -118 7 -165 10 -267 14 -579 38
-720 55 -47 6 -110 13 -140 15 -73 6 -213 23 -330 40 -52 7 -135 19 -185 25
-49 6 -126 18 -170 25 -196 34 -230 39 -237 37 -4 -1 -62 10 -130 24 -68 14
-148 29 -178 34 -105 17 -211 38 -301 61 -20 5 -47 9 -59 9 -13 0 -46 6 -74
14 -48 13 -123 31 -172 40 -11 2 -38 9 -60 15 -21 5 -88 22 -149 36 -60 14
-119 28 -130 31 -42 10 -243 63 -300 79 -33 10 -73 21 -90 25 -64 17 -284 82
-356 106 -41 13 -84 26 -95 29 -24 5 -303 97 -484 160 -235 80 -664 245 -945
362 -71 29 -138 58 -147 63 -10 6 -22 10 -27 10 -6 0 -50 19 -98 41 -48 23
-97 45 -108 50 -11 4 -63 28 -115 52 -349 163 -464 217 -480 226 -8 5 -91 48
-185 95 -93 48 -199 103 -235 123 -66 37 -159 87 -240 130 -25 13 -52 28 -60
33 -8 5 -71 41 -140 80 -69 40 -132 76 -140 81 -57 32 -175 104 -494 302 -53
33 -334 219 -351 233 -11 9 -30 21 -42 27 -13 5 -23 14 -23 19 0 4 -4 8 -10 8
-8 0 -109 68 -147 100 -7 5 -17 10 -23 10 -5 0 -10 4 -10 8 0 5 -16 17 -35 28
-19 10 -35 22 -35 26 0 5 -4 8 -10 8 -9 0 -35 19 -65 47 -8 7 -16 13 -19 13
-6 0 -100 66 -126 88 -8 7 -44 36 -80 63 -36 27 -73 56 -83 64 -9 8 -22 15
-27 15 -6 0 -10 3 -10 8 0 4 -23 23 -50 42 -27 19 -50 38 -50 43 0 4 -7 7 -15
7 -8 0 -15 3 -15 8 0 4 -23 23 -50 42 -27 19 -50 38 -50 41 0 3 -22 21 -50 40
-27 19 -50 37 -50 40 0 4 -12 15 -28 25 -70 45 17 -30 243 -211 505 -404 1007
-761 1520 -1082 2551 -1594 5465 -2424 8475 -2416 2334 7 4564 500 6680 1479
134 62 620 305 767 383 1223 651 2418 1508 3418 2450 103 97 606 599 664 663
84 93 25 44 -99 -81z"/>
<path d="M20912 4410 c0 -19 2 -27 5 -17 2 9 2 25 0 35 -3 9 -5 1 -5 -18z"/>
<path d="M20641 4154 c0 -11 3 -14 6 -6 3 7 2 16 -1 19 -3 4 -6 -2 -5 -13z"/>
<path d="M22040 4020 c-8 -5 -10 -10 -5 -10 6 0 17 5 25 10 8 5 11 10 5 10 -5
0 -17 -5 -25 -10z"/>
<path d="M21990 4000 c-8 -5 -10 -10 -5 -10 6 0 17 5 25 10 8 5 11 10 5 10 -5
0 -17 -5 -25 -10z"/>
<path d="M21910 3970 c-8 -5 -10 -10 -5 -10 6 0 17 5 25 10 8 5 11 10 5 10 -5
0 -17 -5 -25 -10z"/>
<path d="M21850 3950 c-8 -5 -10 -10 -5 -10 6 0 17 5 25 10 8 5 11 10 5 10 -5
0 -17 -5 -25 -10z"/>
<path d="M21770 3920 c-8 -5 -10 -10 -5 -10 6 0 17 5 25 10 8 5 11 10 5 10 -5
0 -17 -5 -25 -10z"/>
<path d="M21710 3900 c-18 -12 -2 -12 25 0 13 6 15 9 5 9 -8 0 -22 -4 -30 -9z"/>
<path d="M21620 3870 c-18 -12 -2 -12 25 0 13 6 15 9 5 9 -8 0 -22 -4 -30 -9z"/>
<path d="M5540 3866 c0 -2 8 -10 18 -17 15 -13 16 -12 3 4 -13 16 -21 21 -21
13z"/>
<path d="M21545 3845 c-39 -17 -21 -18 25 0 19 7 28 14 20 14 -8 0 -28 -6 -45
-14z"/>
<path d="M5610 3806 c0 -2 7 -9 15 -16 13 -11 14 -10 9 4 -5 14 -24 23 -24 12z"/>
<path d="M21418 3803 c7 -3 16 -2 19 1 4 3 -2 6 -13 5 -11 0 -14 -3 -6 -6z"/>
<path d="M5675 3750 c10 -11 20 -20 23 -20 3 0 -3 9 -13 20 -10 11 -20 20 -23
20 -3 0 3 -9 13 -20z"/>
<path d="M21128 3723 c7 -3 16 -2 19 1 4 3 -2 6 -13 5 -11 0 -14 -3 -6 -6z"/>
<path d="M21058 3703 c7 -3 16 -2 19 1 4 3 -2 6 -13 5 -11 0 -14 -3 -6 -6z"/>
<path d="M21008 3693 c7 -3 16 -2 19 1 4 3 -2 6 -13 5 -11 0 -14 -3 -6 -6z"/>
<path d="M20935 3680 c-27 -7 -28 -8 -5 -8 14 0 34 3 45 8 25 11 2 11 -40 0z"/>
<path d="M20855 3660 c-13 -5 -14 -9 -5 -9 8 0 24 4 35 9 13 5 14 9 5 9 -8 0
-24 -4 -35 -9z"/>
<path d="M20725 3635 c-27 -7 -41 -13 -30 -14 11 0 43 6 70 13 63 18 28 18
-40 1z"/>
<path d="M20638 3613 c6 -2 18 -2 25 0 6 3 1 5 -13 5 -14 0 -19 -2 -12 -5z"/>
<path d="M20598 3603 c7 -3 16 -2 19 1 4 3 -2 6 -13 5 -11 0 -14 -3 -6 -6z"/>
<path d="M20460 3585 c-30 -7 -46 -13 -35 -13 11 -1 47 5 80 12 33 8 49 14 35
14 -14 0 -50 -6 -80 -13z"/>
<path d="M20305 3560 c-27 -7 -27 -8 -5 -8 14 0 39 4 55 8 27 7 27 8 5 8 -14
0 -38 -4 -55 -8z"/>
<path d="M20208 3543 c12 -2 32 -2 45 0 12 2 2 4 -23 4 -25 0 -35 -2 -22 -4z"/>
<path d="M20105 3530 c-27 -7 -27 -8 -5 -8 14 0 39 4 55 8 27 7 27 8 5 8 -14
0 -38 -4 -55 -8z"/>
<path d="M19993 3513 c9 -2 23 -2 30 0 6 3 -1 5 -18 5 -16 0 -22 -2 -12 -5z"/>
<path d="M19933 3503 c9 -2 23 -2 30 0 6 3 -1 5 -18 5 -16 0 -22 -2 -12 -5z"/>
<path d="M19848 3493 c12 -2 32 -2 45 0 12 2 2 4 -23 4 -25 0 -35 -2 -22 -4z"/>
<path d="M19743 3483 c9 -2 25 -2 35 0 9 3 1 5 -18 5 -19 0 -27 -2 -17 -5z"/>
<path d="M19658 3473 c12 -2 30 -2 40 0 9 3 -1 5 -23 4 -22 0 -30 -2 -17 -4z"/>
<path d="M19308 3463 c12 -2 32 -2 45 0 12 2 2 4 -23 4 -25 0 -35 -2 -22 -4z"/>
<path d="M19428 3463 c12 -2 32 -2 45 0 12 2 2 4 -23 4 -25 0 -35 -2 -22 -4z"/>
</g>
</svg>
